<svg xmlns="http://www.w3.org/2000/svg" baseProfile="tiny" viewBox="0 0 200 150" xmlns:v="https://vecta.io/nano"><g fill="none" stroke="#802b3c" strokeWidth="2"><path vector-effect="non-scaling-stroke" d="M92.84 38.98l-4.41 3.41m-1.74 1.03l-6.6 5.42m-3.91 4.63l-1.43 1.74m-2.3 3.62q-4.1 4.02-1.32 7.73m1.31.28l3.57-7.1m1.71-3.44l3.22-6.27m1.67.26q-1.35 5.67-4.16 10.72m-1.21 3.05l-4.22 9.87m-.68 1.53L66.73 88.3m-.92 1.74l-2.25 4.42m-.67 1.44l-3.82 8.1m-.73 1.27l-3.63 9.21m-.49 1.26l-3.67 9.33q-.22.53.16.96 5.02 5.73 12.77 5.98.5.01.6-.48l.44-1.98m10.1-29.25l1.44-3.26m.9-1.62q.41-2.9 1.54-4.71m3.53-8.91q-.39-.64.01-.4m1.9-5.48q-.12-.47.04-1.17m6.59-16.63q.54-.78.18-1.56m.85-1.27l.83-2.95a.57.57 0 0 1 .71-.4c.31.08.49.39.42.7l-1.68 7.07m-3.07 9.01q-1.16 2.08-1.34 4.17-.05.65.6.56l6.78-.95m1.93-.73l4.27-1.39m1.15-.63l2.91-1.08m2.18-.98l1.76-1.02m1.58-1.51l5.84-6.38c.39-.43 1.08-.04.93.52l-1.07 3.83q-.14.52.18.94l2.37 3.18m1.75 2.11l3.64 3.5m1.28.84c3.11 2.06 7.01 4.99 10.94 4.07m1.37-.8l11.92-7.32m1.77-1.07c4.31-2.48 7.02-5.7 10.85-9.29"/><path vector-effect="non-scaling-stroke" d="M160.45 57.16l-.7-.68m-3.49-6.81q-.03-2.23-1.06-3.62-.38-.5-.82-.06l-7.12 7.07m-8.7 9.75l-1.86 1.96m-.81 1.93l.62 1.38a.72.72 0 0 1-.28.91c-.31.19-.71.12-.94-.16q-4.01-4.94-6.49-11.05m-.66-1.49l-1.81-4.11m-.34-1.34l-2.83-4.89m-1.01-1.23l-3.47-3.82c-.26-.29-.74-.11-.74.28l-.04 4.18q-.01.61-.47 1.02-1.08.95-2.29.25c-.31-.18-.55-.46-.67-.79q-.59-1.61-2.43-.71-1.22.6-2.22.97m-1.49.37q-2.39 3.39-5.29 5"/><path vector-effect="non-scaling-stroke" d="M106.35 45.32q-2.13-.55-3-1.37m-2.3.04l-3.07 1.05a.68.68 0 0 1-.87-.82l1.68-6.15q.11-.43-.33-.44-1.71-.04-3.68.74"/></g><path d="M36.35 0h.75q-2.2 6.19-1.6 12.41c.01.15-.09.29-.23.32-.15.03-.3-.05-.35-.19Q32.5 5.87 36.35 0zm7.09 21.86l-.71-.05c-.3-.02-.56-.22-.64-.51-1.57-5.19-1.92-13.1 1.78-17.75q.28-.35.72-.41l10.69-1.21q.68-.08.72.61l.24 4.15q.03.49.5.62l2.42.69q.73.21.55.94-1.25 5.23-.45 10.55.08.56.61.75l.61.21q.71.25.23.83c-2.65 3.27-10.52 5.14-14.51 6.14q-.68.17-.88-.5l-1.39-4.66q-.11-.37-.49-.4zm5.3-15.66l5.5.78a.61.61 0 0 0 .69-.48l.5-2.31q.13-.6-.48-.53L44.79 4.82c-.3.03-.55.23-.67.51q-2.91 7.02-1.64 14.68a.77.77 0 0 0 .83.64.76.76 0 0 0 .71-.78c-.06-4.18.32-10.56 3.9-13.44a1.06 1.06 0 0 1 .82-.23zm-1.53 2.34q-2.79 8.33-1.31 17.08.07.4.45.25l11.05-4.35c.47-.18.74-.68.63-1.18q-1.2-5.15.22-10.23a.61.61 0 0 0-.59-.77q-4.57-.04-8.94-1.55a1.19 1.19 0 0 0-1.51.75zm100.78 16.89l-5.48 1.31c-.43.1-.82-.28-.73-.71q1.66-8.09-3.65-14.43c-.35-.42-.28-1.04.16-1.37q5.62-4.31 12.48-6.1.64-.17 1.08.33l3.47 4.07c.28.32.7.46 1.11.36q3.39-.82 6.76-.01.54.13.66.68 2 9.49-2.22 17.84c-.75 1.47-2.1 2.5-3.6 2.94q-.8.24-1.23-.18-.27-.27-.64-.29l-7.95-.53a1 1 0 0 1-.84-1.43l.97-2.04q.29-.59-.35-.44zm7.66-4.94c.45-4.29-.27-11.7-4.23-14.47q-.48-.34-1.02-.1l-10.1 4.47q-.76.34-.27 1.01 4.35 5.91 3.3 13.24c-.04.29.23.52.51.43l11.15-3.76c.36-.12.62-.44.66-.82zm1.38-1.49c.02 4.33-3.77 4.71-7.06 5.69-1.36.41-1.13 2.4.28 2.49l8.45.58a.78.78 0 0 0 .71-.36q5.01-7.66 3.42-16.77-.08-.48-.57-.49l-5.98-.04q-.39-.01-.29.38 1.01 3.94 1.04 8.52zm12.72-2.79c1.22-2.21.55-7.34-.15-9.69-.07-.23.15-.45.38-.38q.13.04.27.08c.13.04.24.15.29.28q2.14 5.31.09 10.6c-.1.27-.38.41-.66.35-.28-.07-.47-.33-.44-.61q.03-.29.22-.63zM49.5 150h-.59c-1.3-3.04 1.66-8.15 3.12-10.84.15-.28-.14-.58-.43-.45q-4.63 2.17-9.1 4.94-.54.34-1.12.38-.95.05-1.24-.11c-1.22-.66-1.34-2.37-.24-3.27l4.83-3.96q.85-.7-.23-.49L33 138.46c-1.01.2-1.96-.55-1.99-1.58-.04-1.42 2.02-2.07 2.78-2.56q6.69-4.24 14.03-7.22.63-.26.46-.92l-.28-1.13q-.13-.5.08-.97l16.47-37.97q.28-.65-.33-.29c-2.78 1.63-9.42 7.46-12.36 6.38q-1.43-.53-2.34-2.32-3.63-7.09-5.22-14.93c-.65-3.18-1.42-5.58.34-7.63.71-.82-.03-2.07-1.09-1.85q-6.63 1.42-12.57.13c-2.69-.58-3.09-3.58-2.7-5.76q.4-2.21 3.28-3.24 9.01-3.23 18.42-1.44c3.22.61 2.6 4.87 2.73 7.34.02.31.23.58.54.67 2.74.77 2.87 6.29 3.11 9.45q.04.51.42.17l10.94-10.01q.38-.35.48-.85c.9-4.62 4.45-8.09 7.19-11.79q3.07-4.13 6.31-6.72c6.49-5.19 12.68-8.97 21.27-8.79q.51.01.41-.49-.49-2.45-2.9-2.05-.53.09-.83-.36c-1.65-2.6-.36-5.09 2.55-5.79q.54-.13.5-.68c-.21-2.92-.82-6.58 3.15-7.12q6.81-.92 13.2.38c.67.14.95.95.5 1.47q-1.65 1.95-1.26 3.36 1.57 5.77.36 11.7-.11.54-.59.79l-2.72 1.42q-.62.32.06.47l3.6.79q.37.08.65.34 6.14 5.86 8.17 11.35 2.7 7.28 6.21 14.16c.18.36.67.39.9.06q7.23-10.38 16.69-19.06 2.67-2.46 4.95-3.34.46-.18.74-.58 6.87-9.81 17.56-15.12a1.61 1.61 0 0 1 1.85.29q1.74 1.69-.55 4.35-1.79 2.08-3.45 4.3-.43.59.29.47 10.44-1.77 20.63 1.26c1.17.35 1.16 2.02-.02 2.35l-9.34 2.64q-.21.06-.02.16 1.13.58 2.23.92 4.79 1.51 6.58 3.39 1.48 1.56.15 2.7c-1.42 1.21-4.93 1.15-6.63.96a.35.35 0 0 0-.23.64c1.63 1.06 4.56 3.38 3.92 5.52-.42 1.42-1.45 1.6-2.82 1.28q-5.64-1.29-11.27-2.53-3.28-.72-4.92-.54c-1.83.21-6.41 1.65-5.73 4.28q.13.49-.24.85-12.2 11.71-26.96 19.95c-3.14 1.76-5.87 1.63-9.13-.24q-9.43-5.42-12.28-8.27-1.97-1.98-3.23-4.32c-.27-.5-.95-.61-1.37-.21-3.15 3.04-7.73 4.46-11.39 6.37q-1.68.89-.31 2.21 4.66 4.48 8.87 9.52c2.13 2.55 2.83 4.9 3.79 7.94q2.63 8.31 6.25 25.86.52 2.5-.26 4.05a1.47 1.47 0 0 0-.1 1.01c.62 2.31 2.64 3.64 3.67 4.98 2.25 2.92 4.81 5.24 4.56 9.44q-.03.53-.47.82l-3.47 2.27q-.5.33-1.07.16-8.87-2.58-14.83-9.48c-1.71-1.98-3.51-2.78-3.24-5.97.02-.25-.08-.5-.28-.66l-.3-.24q-.25-.2-.31-.51-2.95-14.02-4.3-28.27c-.09-.87-.48-1.7-.52-2.66a1.2 1.2 0 0 0-.46-.87L84.72 82.32q-.45-.34-.64.19-4.48 12.39-9.63 24.51c-3.28 7.73-5.57 15.15-8.03 22.9q-.17.52.11 1 .77 1.34-.12 2.57-.29.4-.06.83l4.52 8.78c.54 1.05-.36 2.26-1.52 2.04-3.72-.69-5.69-3.69-8.35-6.11q-.36-.33-.7.02L49.5 150zm56.139-129.132c.061-.358-.229-.698-.64-.769s-.799.161-.859.513c-.061.358.229.698.64.769s.799-.161.859-.513zm-1.219 7.652l-3.58.01q-.62 0-.6.63l.02.68c.01.31.32.53.61.42l1.93-.7a.53.53 0 0 1 .69.65l-.17.56q-.17.57.14 1.07.84 1.33 2.31 2.23a1.88 1.88 0 0 1-.02 3.23q-1.23.72-.81 1.98c.77 2.3 2.37 2.36 2.28 5.54q-.03.91.65.3l3.77-3.41q.42-.37-.07-.65-.7-.4-.29-1.06c.3-.48.5-.87.51-1q.53-4.45 5.09-4.6a.82.82 0 0 0 .78-.8l.09-6.57c0-.13-.1-.24-.23-.26a.25.25 0 0 0-.27.2q-.22 1.07-1.19.95-.66-.08-.47.57l.53 1.8q.17.58-.43.69l-1.49.28a.52.52 0 0 1-.43-.9q1.62-1.4.33-3.11c-.01-.02-.02-.04-.02-.07l.01-.8c0-.16.12-.29.28-.32.16-.02.31.08.36.23l.31.99a.4.4 0 0 0 .66.16l1.28-1.27a.47.47 0 0 0-.15-.77l-1.84-.78a.42.42 0 0 1 .14-.8l1.36-.07c.27-.02.46-.25.42-.51l-.04-.29q-.09-.56-.65-.51c-4.03.31-12.74-1.84-11.38 5.57.05.26-.15.5-.42.51zm75.79 18.73l10.45.83c.32.03.61-.19.68-.5a.64.64 0 0 0-.4-.74q-5.91-2.21-12.29-2.99c-.74-.09-1.31-.7-1.34-1.45a1.52 1.52 0 0 1 1.2-1.56l8.54-1.84q3.68-.8-.04-1.41-6.75-1.1-16.66 1.39a.8.8 0 0 1-.89-.38c-1.43-2.48 4.29-7.58 5.86-9.16a.64.64 0 0 0 .05-.85.65.65 0 0 0-.84-.15q-10.44 6.35-17.75 16.16-.36.47-.13 1.01l3.71 8.89q.22.52.78.49 4.21-.21 7.79-2.48 2.43-1.53 4.83-.99 5.75 1.29 14.2 4.23.72.25.3-.39c-1.5-2.24-6.12-3.81-8.84-5.03a1.6 1.6 0 0 1-.9-1.87c.19-.76.91-1.27 1.69-1.21zM99.4 40.69q-.41.23-.45.66c-.02.34.3.61.63.53l3.84-.92q.36-.08.26-.43l-1.12-3.78q-.23-.76-.91-.36-1.94 1.15-1.78 3.43c.03.36-.15.7-.47.87zm-4.62-2.32q-.56-.33-1.94.61l-4.41 3.41q-1.87.61-1.74 1.03l-6.6 5.42q-2.74 1.49-3.91 4.63l-1.43 1.74q-1.87 1.43-2.3 3.62-4.1 4.02-1.32 7.73-.3.85.14 1.3.37.39.83.1.6-.37.34-1.12l3.57-7.1q1.29-1.4 1.71-3.44l3.22-6.27q.49-.49 1.67.26-1.35 5.67-4.16 10.72-1.01 1.57-1.21 3.05l-4.22 9.87q-.84.61-.68 1.53L66.73 88.3q-.93.79-.92 1.74l-2.25 4.42q-.82 1.05-.67 1.44l-3.82 8.1q-1.32.99-.73 1.27l-3.63 9.21q-.4.07-.56.54-.11.35.07.72l-3.67 9.33q-.22.53.16.96 5.02 5.73 12.77 5.98.5.01.6-.48l.44-1.98q3.21-10.28 4.26-13.95.16-.58-.2-1.41-.25-.59.27-.12.11.1.23.19.4.29.57-.18l4.97-13.78 1.44-3.26q.69-.68.9-1.62.41-2.9 1.54-4.71l3.53-8.91q-.39-.64.01-.4l1.9-5.48q-.12-.47.04-1.17c1.14-.54.84-1.71 1.13-2.53q2.52-7.11 5.46-14.1.54-.78.18-1.56l.85-1.27.83-2.95a.57.57 0 0 1 .71-.4c.31.08.49.39.42.7l-1.68 7.07-3.07 9.01q-1.16 2.08-1.34 4.17-.05.65.6.56l6.78-.95q1.53-.09 1.93-.73l4.27-1.39q.84.03 1.15-.63l2.91-1.08 2.18-.98 1.76-1.02q.94-.07 1.58-1.51l5.84-6.38c.39-.43 1.08-.04.93.52l-1.07 3.83q-.14.52.18.94l2.37 3.18q.29 1.01 1.75 2.11l3.64 3.5q-.01.36 1.28.84c3.11 2.06 7.01 4.99 10.94 4.07l1.37-.8 11.92-7.32q1.19-.41 1.77-1.07c4.31-2.48 7.02-5.7 10.85-9.29q.05-.82-1.95-2.13l-.7-.68-3.49-6.81q-.03-2.23-1.06-3.62-.38-.5-.82-.06l-7.12 7.07-8.7 9.75-1.86 1.96q-.87.42-1.25 1.58-.07.22.15.28l.29.07.62 1.38a.72.72 0 0 1-.28.91c-.31.19-.71.12-.94-.16q-4.01-4.94-6.49-11.05.16-.67-.66-1.49l-1.81-4.11q.88.5-.34-1.34l-2.83-4.89q.05-.81-1.01-1.23l-3.47-3.82c-.26-.29-.74-.11-.74.28l-.04 4.18q-.01.61-.47 1.02-1.08.95-2.29.25c-.31-.18-.55-.46-.67-.79q-.59-1.61-2.43-.71-1.22.6-2.22.97-.66-.04-1.49.37-2.39 3.39-5.29 5l3.31-6.15q-2.13-.55-3-1.37-.31-.64-1.09-.52-.76.12-1.21.56l-3.07 1.05a.68.68 0 0 1-.87-.82l1.68-6.15q.11-.43-.33-.44-1.71-.04-3.68.74zm19.95 1.17c-.14 0-.26.09-.31.22l-.8 2.05a.34.34 0 0 0 .08.37l1.92 1.83c.22.22.59.04.57-.27l-.26-3.89a.34.34 0 0 0-.34-.32l-.86.01zm-72.5 23.97c1.33-.19 2.7.91 3.5 2.09q.26.39.67.18l4.51-2.26q.42-.21.41-.69l-.13-4.63q-.01-.46-.45-.54-10.81-2.14-20.87 2.19c-.29.12-.47.43-.43.74l.22 2.33q.06.55.61.63 6.02.81 11.96-.04zm10.72 15.73a.76.76 0 0 1-1.04-.06.76.76 0 0 1-.02-1.04l3.41-3.8q.39-.43.29-.99l-1.43-8.21q-.12-.71-.78-.43l-7.31 3.14q-.47.2-.42.71 1.04 10.57 4.98 20.42a2.21 2.21 0 0 0 2.98 1.19q3.76-1.71 6.74-3.95c2.93-2.21 5.45-1.66 7.02-5.72q2-5.15 4.09-10.27.11-.26-.16-.32l-.54-.12c-.17-.04-.31-.15-.39-.3l-2.13-4.48q-.19-.42-.49-.08-6.83 7.72-14.8 14.31zm56.79 9.28c-3.42-5.05-7.79-9.28-11.26-14.18q-.27-.38-.69-.18-5.43 2.48-11.4 2.19a.66.66 0 0 0-.66.48l-.68 2.58q-.1.39.24.59 7.81 4.53 13.84 11.27c1.78 1.98 2.68 5.98 3 8.61q1.46 12.06 3.68 24.03.1.49.58.6c4.52 1.05 12.39-.09 10.84-6.72q-2.8-11.94-5.31-23.95-.63-3.04-2.18-5.32zm-3.48 38.93c3.16 3.9 12.47 13.69 18.02 10.12.96-.62 1.22-1.91.56-2.85l-6.36-9.05q-.31-.44-.77-.16-5.1 3.12-10.77.99c-.58-.22-1.07.47-.68.95zm-56.46 7.04q-.46 1.17-1.9 2.16-3.31 2.26-6.14 4.71c-.13.11-.15.3-.06.44.1.13.28.18.43.1q5.57-2.98 11.17-5.54 1.27-.59.75 1.85c0 .02-.01.04-.02.06q-1.91 3.79-3.69 7.65c-.07.16-.02.35.12.44.14.1.34.08.46-.04l7.8-7.99q1.43-1.47 3.03-.19l6.12 4.84a.6.6 0 0 0 .9-.75l-4.41-8.19q-.19-.36-.61-.36-8.34.06-14.32-5.66-.31-.3-.68-.08l-13.06 7.74c-.03.02-.01.05.02.05q4.39-.74 8.88-1.27c1.59-.18 2.9-1.16 4.81-.72q.63.15.4.75zM79.22 27.03l-2.09-.58c-.51-.14-.64-.8-.23-1.12l4.08-3.24q.46-.36.92.01 3.3 2.62 2.12 6.89a.75.75 0 0 1-.63.55l-3.67.43q-.9.11-.54-.73l.51-1.21c.18-.41-.05-.88-.47-1zm1.04-.47q.26.7.27.78a1.28 1.28 0 0 0 1.32 1.04c.64-.03 1.17-.52 1.24-1.16q.23-1.93-1.29-3.05c-1.22-.91-2.89.34-2.19 1.64q.02.04.37.34.19.17.28.41zm32.672-2.073c.069.383-.802.853-1.934 1.044s-2.107.03-2.169-.357c-.069-.383.801-.853 1.934-1.044s2.107-.03 2.169.357zm-1.622 3.893q-.98-.97.09-1.79c.23-.18.57-.01.57.28l-.01 1.23c0 .34-.41.52-.65.28zM33.68 39.26c-1.4-1.95-2.95-4.79-3.59-7.39-.17-.7.17-1.41.82-1.71l5.3-2.41c.19-.09.42-.05.57.1l8.4 8.45c.22.22.24.57.05.82l-4.4 5.74a.94.94 0 0 1-.95.35q-3.97-.85-6.2-3.95zm4.7-7.31c-.63-.72-.78-1.75-1.61-2.49q-.4-.36-.89-.13l-4.43 2.07c-.3.14-.43.51-.29.81q2.81 5.99 8.25 9.7.47.31.82-.12l3.52-4.29q.32-.39-.09-.7-2.9-2.17-5.28-4.85zm75.23.38c.12.08.17.22.12.35q-.14.36-.51.61-.27.17-.58.14-.79-.07-.92-.96a.68.68 0 0 1 1.03-.67l.86.53zM26.2 42.39c.06.07.05.18-.03.24l-.02.02c-.62.48-2.44-.82-4.08-2.91l-.18-.24c-1.63-2.09-2.45-4.17-1.84-4.66l.03-.01c.07-.06.18-.05.24.02l5.88 7.54z"/><path fill="#ff5678" d="M101.05 43.99l-4.3 5.71c-.74.98-.56 2.38.4 3.15q2.49 1.99 5.89-1.38 2.9-1.61 5.29-5c1.7 2.33.47 9.05-.4 11.74q-.81 2.49-1.29 5.23-.46 2.62-1.53 5.23l-2.91 1.08q.41-4.25 1.72-8.31c.45-1.4 2.04-3.23 1.47-4.86-.32-.92-1.36-1.36-2.24-.94-6.98 3.36-11.02 9.27-8.3 16.86l-6.78.95q-.65.09-.6-.56.18-2.09 1.34-4.17 3.6-3.82 3.07-9.01l1.68-7.07c.07-.31-.11-.62-.42-.7a.57.57 0 0 0-.71.4l-.83 2.95q-3.61-7.32-11.51-6.45l6.6-5.42q-.29 3.58.97 6.6a1.17 1.17 0 0 0 .7.66c3.42 1.15 5.21-1.18 5.61-4.4q.5-3.96.81-7.91 1.97-.78 3.68-.74.44.01.33.44l-1.68 6.15a.68.68 0 0 0 .87.82l3.07-1.05z"/><path d="M65.06 50.16l-3.42 4.38c-.23.24-.64.08-.64-.25-.09-5.07 9.01-13.17 13.04-15.73q.72-.46 1.23-.22c.41.19.49.74.16 1.05q-5.45 5.06-10.37 10.77zm1.1-10.61q.6-.6 1.32-.87c.42-.16.74.38.41.68l-6.23 5.58c-.26.23-.65-.07-.49-.38 1.25-2.44 3.16-3.21 4.99-5.01z"/><path d="M92.84 38.98q.09 4.46-1.53 8.66c-.41 1.06-1.96.89-2.13-.24l-.75-5.01 4.41-3.41zm29.31 5.74q-6.87 3.32-11.55 9.33c-.22.29-.68.08-.61-.28q.77-3.83-.17-7.67 1-.37 2.22-.97 1.84-.9 2.43.71c.12.33.36.61.67.79q1.21.7 2.29-.25.46-.41.47-1.02l.04-4.18c0-.39.48-.57.74-.28l3.47 3.82zm-18.8-.77q.87.82 3 1.37-2.21 1.7-3.52 3.73c-.75 1.15-1.75 1.77-2.89 2.15-1.24.41-2.22-1.09-1.34-2.06l4.75-5.19zm19.81 2l2.83 4.89q-4.13 1.99-5.4 4.5-1.22 2.4 1.21 3.11 2.94.87 7-.67 2.48 6.11 6.49 11.05c.23.28.63.35.94.16a.72.72 0 0 0 .28-.91l-.62-1.38q.16-.96.81-1.93l1.86-1.96q-2.17 7.57-2.07 14.96c-3.93.92-7.83-2.01-10.94-4.07l5.52-3.03a.97.97 0 0 0-.33-1.81l-11.86-1.61-2.37-3.18q-.32-.42-.18-.94l1.07-3.83c.15-.56-.54-.95-.93-.52l-5.84 6.38c-3.26-1.26-1.56-4.64-.9-6.94q.45-1.61 1.14-2.63 4.52-6.78 12.29-9.64zm33.1 3.72q-4 3.34-4.91 7.93-.11.54.28.92 3.64 3.61 10.77.77c-3.83 3.59-6.54 6.81-10.85 9.29q-.15-2.11-1.22-3.78-.25-.4-.07-.84.21-.49.06-.96-1.62-5.12-3.06-9.94l7.12-7.07q.44-.44.82.06 1.03 1.39 1.06 3.62zm-75.32.36l-3.22 6.27q-1.11-5.64 3.22-6.27zm9.81 6.53q.36.78-.18 1.56l-1.5.73q-.37.18-.33.59.08 1-.65 1.67-.4.37-.31.9.44 2.48-1.61 4.1c-.14.11-.21.29-.19.47l.12.88c.04.29-.21.54-.5.49q-5.99-.95-7.15-6.94 2.81-5.05 4.16-10.72 6.05.65 8.14 6.27zm35.58-4.38l1.81 4.11q-2.86 1.51-5.61-.01-.56-.31-.08-.72l3.88-3.38zm-50.15 1.29l-.17 6.27-3.57 7.1q.23-6.11 2.31-11.63l1.43-1.74zm83.57 3.01l.7.68q-2.58.99-5.17-.03-.56-.23-.37-.8l.7-2.01a.77.77 0 0 1 1.49.23q.03.87.36 1.42.95 1.56 2.29.51z" fill="#ff5678"/><path d="M15.69 57.68l-6.51-1.61a.58.58 0 0 0-.67.31q-4.38 9.14 1.4 17.15c.11.15.08.35-.05.47-.14.13-.35.12-.48 0-4.65-4.27-4.54-11.17-2.57-16.72q1.05-2.97 4.06-2.37 3.41.67 6.75 1.3c.75.14 1.07 1.05.57 1.64q-2.12 2.5-1.91 5.79.04.66.59.29l4.08-2.73q.42-.28.61.19c1.33 3.29 3.95 3.52 6.86 4.5q.48.16.31.64-1.89 5.39-5.96 9.36-.36.35-.86.38-4.66.26-7.59-3.26-.38-.45-.86-.12-.66.47-1.43.8c-.3.13-.64 0-.78-.3-.14-.29-.02-.64.26-.79l5.25-2.85q.47-.25.15-.67-3.88-5.06-1.01-10.94.18-.36-.21-.46zm3.87 12.05l-3.59 2.15c-.51.31-.45 1.07.11 1.29l4.08 1.61q.65.25 1.1-.28l5.26-6.12q.55-.63-.26-.85-3.51-.94-5.19-4.13c-.12-.23-.41-.31-.64-.18l-3.55 2.08a.56.56 0 0 0-.2.77q.97 1.74 2.81 2.54a.63.63 0 0 1 .07 1.12z"/><path d="M149.78 69.65l-11.92 7.32q-.34-11.53 6.79-20.54a.99.99 0 0 1 1.73.36l3.4 12.86zm-48.73.73l-4.27 1.39c-4.54-5.46 1.39-12.48 6.47-15.08.83-.43 1.7.51 1.22 1.31q-3.19 5.33-3.42 12.38zm-28.6-11.55l-1.32 7.73q-2.78-3.71 1.32-7.73zm4.79 5.23q2.46 3.5 7.71 6.09c.14.07.15.27.02.35q-1.5.95-1.36 2.71.04.42-.31.68l-1.07.79c-.14.11-.19.3-.1.46s.28.23.45.16l1.4-.55q-.16.7-.04 1.17-6.42 3.94-10.92-1.99l4.22-9.87zm31.81 2.61l-1.76 1.02.25-1.57q.08-.47.55-.41.59.08.96.96zm11.58 2.69l8 .93q.8.09.18.6-2.08 1.69-4.54 1.97l-3.64-3.5z" fill="#ff5678"/><path d="M174.94 84.65l-1.3-6.27c-.13-.64.22-1.28.84-1.52l9.65-3.64q.5-.19.96.09c7.32 4.52 6.92 10.4 7.61 18.22q.05.59-.53.7l-8.12 1.6a.65.65 0 0 0-.47.38c-4.01 9.5-7.31 16.82-16.99 20.03-.32.1-.65.1-.96 0q-8.36-2.9-13.84-9.52c-3.24-3.89-4.83-6.38-1.64-10.9.58-.82 1.77-.92 2.49-.2l4.88 4.92c.2.21.52.23.75.06q7.13-5.33 10.11-13.67.16-.42.6-.36l5.35.73q.77.11.61-.65zm16.37 5.07c.21-6.27-1.81-10.17-5.85-14.33a.93.93 0 0 0-.96-.24l-9.27 3.03q-.49.16-.38.66l1.38 6.34q.08.38.48.43l6.69.69c.27.03.5.2.61.45q1.11 2.47.31 5.01-.18.56.4.45l5.42-1.1c.66-.13 1.15-.71 1.17-1.39zm-26.07 17.53q-1.2 1.84-.55 4c.1.31.37.53.69.55 3.55.29 6.53-2.53 9.06-4.78q2.13-1.89 3.51-4.51 3.09-5.87 5.53-12.33 1.13-3-1.98-2.2c-2.57.66-8.88-1.1-11.68-1.66q-.48-.1-.61.38-2.27 8.27-9.5 12.76a.75.75 0 0 0-.13 1.17l5.54 5.46c.31.31.36.79.12 1.16zm-10.37-9.12q-1.72-2.05-2.79-3.06-.41-.39-.85-.04c-2.32 1.86-1.87 4.08-.17 6.26q4.3 5.51 10.53 9.88 1.7 1.19 1.61-.88-.08-1.88.63-3.51c.12-.29.03-.62-.22-.81q-5.6-4.12-8.74-7.84z"/><path d="M72.34 75.46l2.55 2.44q.4.39.97.41l4.88.13q.5.02.64.51l.66 2.45q-.4-.24-.01.4-.4-.38-.82-.42-.53-.05-.65.47l-2.06 8.86q-1.13 1.81-1.54 4.71-1.68.41-2.79-.01-.48-.18-.68-.66-1.96-4.69-6.76-6.45l5.61-12.84zm-8.78 19l2.25-4.42q4.05.94 5.64 4.59.29.65-.41.58l-7.48-.75z" fill="#ff5678"/><path d="M28.16 107.71l-2.55 3.93q-.25.39-.72.39c-7.68-.13-10.24-10-9.28-16.34q.09-.57.64-.75l6.77-2.21c.3-.09.62.02.79.27l6.59 9.56q.28.41.06.85l-1.36 2.7q-.23.46.22.7l.81.42c.34.18.47.61.28.95-1 1.79-4.7 8.73-7.94 8.49q-5.29-.41-8.61-5.27c-1.83-2.67-5.5-7.65-.48-9.43.28-.1.51.25.31.47l-1.61 1.76q-.36.4-.19.9 2.59 8.07 10.79 9.87.58.12.99-.29 2.04-2.01 4.49-5.43.56-.78.5-1.42-.08-.77-.5-.12zm-4.54-13.36c-.06-.15-.22-.22-.37-.17l-6.19 2.13q-.49.16-.64.66c-.98 3.12.7 7.36 2.26 10.08q1.62 2.83 4.84 3.62a.73.73 0 0 0 .78-.31l4.44-6.7c.21-.32.17-.74-.08-1.02q-3.29-3.67-5.04-8.29z"/><path d="M59.07 104l3.82-8.1 9.45.96q.66.06.64.73l-.09 3.61q-.01.59-.59.69l-.65.12q-.62.11-.43.71.06.17.18.29.41.45.24 1.03l-2.16 7.22c-.38 1.26-2.15 1.29-2.58.05q-1.77-5.09-7.83-7.31zm16.99-6.96l-1.44 3.26q-.5-1.29-.34-2.58.06-.52.57-.56l1.21-.12z" fill="#ff5678"/><path d="M121.37 101.31c-.01-.07.04-.13.1-.14h.03c1.07-.16 2.25 1.87 2.64 4.54l.31 2.1c.4 2.66-.15 4.95-1.21 5.11h-.03c-.07.01-.13-.03-.14-.1l-1.7-11.51z"/><path fill="#ff5678" d="M54.71 114.48l3.63-9.21q4.88.57 7.49 5.95a1.06 1.06 0 0 1-.78 1.51l-10.34 1.75z"/><path d="M127.95 106.72q.25.56.16 1.09c-.04.23-.25.4-.48.38a.45.45 0 0 1-.42-.45l-.01-2.47c0-.12.09-.23.21-.24.13-.02.24.06.27.18q.1.43.11.79a1.94 1.94 0 0 0 .16.72zm45.49 8.48c5.05-1.2 8.75-4.22 10.64-9.17q.1-.27.37-.21.48.1.4.59-1.44 9.58-11.1 10.61a.92.92 0 0 1-1.01-.76.93.93 0 0 1 .7-1.06z"/><path fill="#ff5678" d="M64.52 129.55l-.44 1.98q-.1.49-.6.48-7.75-.25-12.77-5.98-.38-.43-.16-.96l3.67-9.33 11.46-1.91c1.13-.19 2.09.83 1.84 1.95q-1.2 5.36-2.48 10.23-.35 1.33-.98 2.05-.35.39-.16.87.16.4.62.62z"/><path d="M185.793 116.357c.257.404-.553 1.364-1.796 2.142s-2.457 1.091-2.71.685.553-1.364 1.796-2.142 2.457-1.091 2.71-.685zM14.37 121.81q2.46.83 5.09.74c.39-.01.72.27.76.66.05.38-.21.73-.59.81q-6.28 1.24-9.38-4.32c-.14-.26.16-.53.41-.37 1.34.89 2.23 1.98 3.71 2.48z"/></svg>