<svg width="41" height="41" viewBox="0 0 41 41" fill="none" xmlns="http://www.w3.org/2000/svg">
<path d="M9.97685 10.0999C12.3612 7.68608 15.5312 6.20605 18.9127 5.92787C22.2941 5.64968 25.6634 6.59173 28.4102 8.58338C31.157 10.575 33.0997 13.4846 33.8864 16.785C34.6731 20.0854 34.2518 23.5584 32.6987 26.575C31.1457 29.5915 28.5636 31.9521 25.4203 33.2292C22.2769 34.5063 18.7801 34.6154 15.5633 33.5367C12.3464 32.458 9.62228 30.263 7.88424 27.3491C6.14619 24.4352 5.50921 20.9952 6.08865 17.6521" stroke="#228BE6" strokeWidth="1.5" stroke-linecap="round"/>
<path d="M19.7269 31.3557C17.1433 31.2755 14.6655 30.3108 12.7078 28.6229C10.7501 26.9349 9.43133 24.626 8.97191 22.0822C8.51248 19.5385 8.9403 16.9141 10.1838 14.648C11.4273 12.3819 13.4111 10.6114 15.8035 9.63251C18.1959 8.65366 20.8518 8.52583 23.3272 9.2704C25.8025 10.015 27.9472 11.5868 29.4026 13.723C30.858 15.8593 31.5358 18.4304 31.3228 21.0065C31.1098 23.5826 30.0188 26.0075 28.2323 27.8757" stroke="#228BE6" strokeWidth="1.5" stroke-linecap="round"/>
<path d="M28.108 17.8723C28.6465 19.8995 28.4045 22.055 27.4299 23.9122C26.4553 25.7695 24.819 27.1933 22.8448 27.9019C20.8707 28.6106 18.7024 28.5523 16.7691 27.7388C14.8358 26.9253 13.2783 25.4158 12.4047 23.5089C11.5311 21.602 11.4051 19.4366 12.0516 17.4413C12.6981 15.4459 14.07 13.7659 15.8959 12.7336C17.7218 11.7013 19.8686 11.392 21.9116 11.8668" stroke="#228BE6" strokeWidth="1.5" stroke-linecap="round"/>
</svg>
