<?xml version="1.0" encoding="UTF-8" standalone="no"?>
<svg xmlns="http://www.w3.org/2000/svg" version="1.2" baseProfile="tiny" viewBox="0.00 0.00 84.00 84.00">
<path fill="#f3f1f3" d="
  M 12.18 28.73
  Q 20.62 23.96 30.04 21.64
  Q 40.35 19.11 48.76 20.01
  Q 64.30 21.66 76.54 32.41
  Q 78.49 34.12 76.34 32.66
  C 67.84 26.90 57.68 23.59 47.59 23.09
  Q 36.18 22.51 28.47 23.78
  Q 20.13 25.15 12.28 29.05
  Q 12.12 29.13 12.09 28.95
  Q 12.06 28.80 12.18 28.73
  Z"
/>
<path fill="#f3f1f3" d="
  M 67.17 46.82
  Q 61.37 36.73 50.68 33.65
  Q 41.25 30.93 32.54 33.87
  Q 27.79 35.47 23.56 39.15
  Q 23.43 39.26 23.32 39.13
  L 23.32 39.12
  Q 23.25 39.04 23.33 38.97
  C 33.68 29.90 48.06 28.32 59.74 35.79
  C 68.00 41.07 73.91 50.37 73.28 60.41
  C 73.24 61.05 72.83 61.60 72.23 61.83
  L 71.80 61.99
  Q 70.92 62.32 70.88 61.38
  Q 70.46 52.54 67.17 46.82
  Z"
/>
<path fill="#f3f1f3" d="
  M 44.42 42.88
  L 43.57 64.05
  C 43.55 64.50 42.94 64.60 42.78 64.18
  L 42.14 62.52
  C 42.13 62.48 42.12 62.44 42.12 62.39
  L 41.47 39.87
  C 41.46 39.47 41.98 39.29 42.21 39.62
  L 44.35 42.63
  C 44.40 42.70 44.43 42.79 44.42 42.88
  Z"
/>
<path fill="#f3f1f3" d="
  M 31.89 46.20
  L 30.97 64.17
  C 30.97 64.31 30.84 64.42 30.70 64.41
  L 30.23 64.37
  C 30.11 64.36 30.01 64.25 30.00 64.13
  L 29.31 43.74
  C 29.31 43.50 29.60 43.39 29.75 43.57
  L 31.84 46.02
  C 31.88 46.07 31.90 46.14 31.89 46.20
  Z"
/>
<path fill="#f3f1f3" d="
  M 56.43 46.44
  C 56.50 46.62 56.53 46.83 56.52 47.03
  Q 55.87 55.40 55.69 64.05
  Q 55.68 64.13 55.60 64.14
  L 55.35 64.19
  Q 54.96 64.26 54.94 63.86
  L 53.82 43.78
  C 53.79 43.39 54.26 43.17 54.55 43.44
  Q 55.68 44.51 56.43 46.44
  Z"
/>
<path fill="#f3f1f3" d="
  M 18.36 45.27
  C 18.10 46.31 17.56 47.09 16.84 47.87
  Q 16.62 48.11 16.78 47.83
  L 18.27 45.23
  Q 18.45 44.93 18.36 45.27
  Z"
/>
<path fill="#f3f1f3" d="
  M 15.58 51.26
  C 15.95 50.64 16.04 49.75 16.11 49.00
  C 16.11 48.98 16.13 48.97 16.15 48.97
  C 16.17 48.97 16.18 48.99 16.18 49.01
  Q 16.11 51.11 14.79 53.30
  Q 14.76 53.36 14.83 53.37
  Q 14.95 53.39 14.88 53.40
  Q 14.79 53.41 14.81 53.32
  Q 15.00 52.23 15.58 51.26
  Z"
/>
</svg>
