<svg width="1661" height="628" xmlns="http://www.w3.org/2000/svg" xmlns:xlink="http://www.w3.org/1999/xlink" xml:space="preserve" overflow="hidden"><defs><clipPath id="clip0"><rect x="407" y="609" width="1661" height="628"/></clipPath></defs><g clip-path="url(#clip0)" transform="translate(-407 -609)"><path d="M822 678.458C914.075 687.903 985.912 765.958 985.912 860.848 985.912 862.906 985.878 864.958 985.812 867L986.796 867 1054.51 867 1055.09 867C1055.02 864.958 1054.99 862.906 1054.99 860.848 1054.99 759.587 1136.8 677.499 1237.71 677.499 1338.61 677.499 1420.42 759.587 1420.42 860.848L1420.42 860.891 1420.42 860.976C1420.42 862.993 1420.38 865.001 1420.32 867L1420.49 867 1488.78 867 1489.02 867C1489.07 865.022 1489.09 863.042 1489.09 861.052 1489.09 857.861 1489.03 854.684 1488.91 851.52 1493.45 760.747 1563.77 687.368 1653 678.417L1653 609.68C1568.39 615.895 1495.41 664.173 1454.75 733.765 1411.15 659.123 1330.36 609 1237.91 609 1145.17 609 1064.16 659.437 1020.65 734.467 980.081 664.498 906.901 615.916 822 609.68L822 678.458Z" fill="#00B4D8" fill-rule="evenodd"/><path d="M1313.91 1175.55C1307.77 1176.06 1302.16 1176.88 1296.55 1176.9 1269.15 1177.05 1241.74 1176.99 1214.34 1176.97 1212.97 1176.97 1211.6 1176.68 1210 1176.5 1210 1110.81 1210 1045.37 1210 979.578 1211.4 979.374 1212.72 979.011 1214.05 979.013 1242.66 979.091 1271.28 978.752 1299.88 979.479 1318.54 979.952 1335.66 985.495 1347.86 1000.81 1367.33 1025.25 1356.74 1060.52 1327.14 1070.35 1325.14 1071.01 1323.18 1071.77 1321.3 1073.74 1322.51 1074.04 1323.69 1074.42 1324.91 1074.64 1350.49 1079.13 1365.76 1097.79 1364.97 1123.62 1364.21 1148.84 1347.78 1168.19 1322.13 1174.05 1319.59 1174.64 1317.01 1175.02 1313.91 1175.55ZM1255.45 1142.88C1270.32 1142.47 1285.24 1142.76 1300.03 1141.44 1313.94 1140.2 1321.95 1129.41 1320.98 1115.6 1320.11 1103.17 1310.06 1092.34 1296.12 1091.18 1281.94 1090 1267.61 1090.59 1253.35 1090.44 1253.06 1090.44 1252.77 1090.95 1252.25 1091.44 1252.25 1107.22 1252.2 1123.22 1252.34 1139.21 1252.35 1140.42 1253.63 1141.63 1255.45 1142.88ZM1262.43 1061.95C1267.27 1061.95 1272.13 1062.25 1276.93 1061.88 1283.71 1061.36 1290.74 1061.28 1297.14 1059.34 1309.27 1055.67 1314.77 1046.6 1313.94 1034.14 1313.26 1023.94 1305.95 1015.03 1294.21 1013.91 1280.53 1012.6 1266.62 1013.6 1252.6 1013.6 1252.6 1029.51 1252.6 1045.41 1252.6 1061.95 1255.72 1061.95 1258.49 1061.95 1262.43 1061.95Z" fill="#0077B6" fill-rule="evenodd"/><path d="M1884.23 1215.13C1866.57 1233.29 1844.31 1237.21 1820.98 1236.99 1801.37 1236.81 1782.79 1232.59 1767.75 1218.52 1761.24 1212.43 1757.51 1204.8 1754.64 1195.45 1767.03 1193.75 1779 1192.01 1791.01 1190.62 1792.21 1190.49 1794.1 1192.2 1794.91 1193.52 1805.47 1210.69 1835.64 1210.68 1847.57 1199.54 1849.71 1197.54 1851.6 1195.02 1852.88 1192.38 1856.04 1185.84 1856.95 1159.72 1854.57 1151.97 1851.09 1156.1 1847.96 1160.43 1844.22 1164.14 1828.71 1179.56 1795.5 1177.9 1778.89 1166.9 1762.84 1156.27 1754.49 1140.99 1751.75 1122.58 1748.44 1100.35 1749.16 1078.43 1759.75 1057.74 1771.47 1034.84 1796.44 1022.24 1821.45 1027 1834.47 1029.48 1843.88 1037.09 1851.01 1047.95 1851.96 1049.41 1852.81 1050.94 1855.02 1052.27 1855.02 1044.45 1855.02 1036.64 1855.02 1028.38 1869.44 1028.38 1882.93 1028.38 1896.95 1028.38 1896.95 1030.63 1896.95 1032.62 1896.95 1034.6 1896.95 1081.98 1896.87 1129.35 1897 1176.73 1897.04 1190.92 1894.06 1203.9 1884.23 1215.13ZM1804.82 1137.48C1819.97 1149.7 1842.42 1145.61 1850.27 1128.47 1858.42 1110.72 1858.27 1092.35 1849.71 1074.76 1841.35 1057.61 1818.21 1053.33 1805.03 1066.89 1799.9 1072.17 1796.27 1080.08 1794.61 1087.39 1790.61 1104.98 1791.43 1122.27 1804.82 1137.48Z" fill="#0077B6" fill-rule="evenodd"/><path d="M526.74 1068.74C540.157 1074.86 551.771 1082.16 559.301 1095.05 572.395 1117.48 565.677 1149.41 544.535 1164.48 527.811 1176.4 508.859 1179.9 488.985 1180 468.964 1180.1 449.541 1177.33 432.382 1165.81 415.315 1154.36 406.198 1136.43 407.056 1114.88 419.651 1114.88 432.294 1114.82 444.935 1114.98 445.943 1114.99 447.724 1116.36 447.811 1117.23 448.719 1126.32 453.483 1133.12 460.798 1137.97 469.888 1144 480.339 1145.01 491.007 1144.49 501.166 1144 510.579 1141.64 517.679 1133.75 525.339 1125.23 524.999 1113.48 515.611 1106.91 509.362 1102.54 501.728 1099.74 494.333 1097.44 482.221 1093.68 469.475 1091.78 457.607 1087.44 447.339 1083.69 437.024 1078.84 428.318 1072.37 412.31 1060.47 407.473 1038.01 414.796 1017.87 422.616 996.369 439.745 985.423 460.584 979.72 478.537 974.804 496.975 974.762 515.068 979.583 539.981 986.219 557.204 1000.82 562.533 1026.93 563.079 1029.61 563.009 1032.41 563.288 1035.96 550.105 1035.96 537.454 1036.05 524.811 1035.8 523.716 1035.78 522.076 1033.65 521.692 1032.24 518.75 1021.41 511.453 1014.88 500.767 1012.9 486.88 1010.32 472.882 1009.61 461.345 1020.14 453.075 1027.69 453.744 1040.43 462.343 1047.63 470.927 1054.82 481.74 1056.15 491.957 1059.05 503.387 1062.29 514.853 1065.41 526.74 1068.74Z" fill="#0077B6" fill-rule="evenodd"/><path d="M1580.7 1065.41C1589.84 1039.44 1616.58 1023.02 1643.13 1026.76 1656.95 1028.71 1667.29 1035.99 1674.88 1047.49 1675.95 1049.12 1677.04 1050.73 1679.24 1052.2 1679.24 1027.91 1679.24 1003.61 1679.24 979 1693.66 979 1707.23 979 1721 979 1721 1045.08 1721 1110.82 1721 1177.02 1707.57 1177.02 1694.22 1177.02 1680.01 1177.02 1680.01 1169.51 1680.01 1161.9 1680.01 1152.69 1678.11 1154.89 1677.22 1155.64 1676.69 1156.58 1663.35 1180.45 1637.64 1183.4 1617.52 1177.2 1600.18 1171.85 1588.37 1159.99 1581.82 1143.68 1571.56 1118.11 1571.61 1091.94 1580.7 1065.41ZM1680.15 1099.3C1679.27 1093.57 1678.96 1087.68 1677.38 1082.15 1673.2 1067.51 1661.87 1059.02 1647.87 1059.28 1634.25 1059.54 1623.46 1069.03 1619.69 1083.77 1616.02 1098.15 1616.07 1112.47 1620.98 1126.46 1624.88 1137.58 1632.33 1145.4 1644.71 1146.72 1657.19 1148.05 1667.09 1143.79 1673.49 1132.43 1679.12 1122.44 1680.53 1111.66 1680.15 1099.3Z" fill="#0077B6" fill-rule="evenodd"/><path d="M1099.75 1031.69C1128.1 1018.93 1158.82 1028.88 1170.7 1054.96 1173.63 1061.38 1175.59 1068.84 1175.69 1075.85 1176.2 1109.4 1175.92 1142.97 1175.92 1177 1162.29 1177 1148.63 1177 1134.32 1177 1134.32 1174.59 1134.32 1172.43 1134.32 1170.28 1134.32 1144.34 1134.61 1118.4 1134.13 1092.46 1134 1085.67 1132.87 1078.19 1129.77 1072.31 1124.37 1062.06 1112.12 1058.74 1099.16 1062.06 1088.26 1064.84 1080.53 1073.48 1079.69 1085.35 1078.9 1096.35 1079.08 1107.44 1079.03 1118.49 1078.94 1137.79 1079 1157.08 1079 1176.93 1064.89 1176.93 1051.05 1176.93 1037 1176.93 1037 1110.88 1037 1045.17 1037 979 1050.45 979 1063.75 979 1077.89 979 1077.89 1003.97 1077.89 1028.7 1077.89 1053.43 1078.37 1053.62 1078.84 1053.8 1079.32 1053.98 1083.84 1044.54 1089.85 1036.53 1099.75 1031.69Z" fill="#0077B6" fill-rule="evenodd"/><path d="M681.265 1058.1C683.815 1049.15 686.086 1040.62 688.766 1032.22 689.295 1030.57 691.376 1028.26 692.795 1028.23 704.422 1027.89 716.062 1028.03 727.698 1028.02 729.468 1028.02 731.239 1028.02 734 1028.02 730.889 1037.01 728.096 1045.25 725.191 1053.44 708.854 1099.52 692.191 1145.49 676.224 1191.7 662.349 1231.85 629.527 1238.36 595.875 1229.56 595.156 1229.37 594.516 1228.87 593.441 1228.31 596.213 1219.2 598.789 1210.18 601.836 1201.31 602.273 1200.05 604.964 1198.93 606.658 1198.86 609.398 1198.74 612.166 1199.81 614.94 1199.92 629.166 1200.49 638.13 1187.96 633.405 1174.61 616.565 1127.04 599.838 1079.43 583.078 1031.83 582.761 1030.93 582.554 1030 582 1028.02 589.68 1028.02 596.795 1028.02 603.91 1028.02 606.718 1028.02 609.527 1028.02 612.336 1028.02 625.81 1028.02 625.765 1028.03 629.526 1041.23 638.361 1072.23 647.243 1103.22 656.112 1134.21 656.365 1135.1 656.688 1135.97 658.449 1137.06 666.007 1110.9 673.569 1084.73 681.265 1058.1Z" fill="#0077B6" fill-rule="evenodd"/><path d="M2027.11 1135.35C2028.35 1134.16 2029.41 1132.68 2030.39 1132.73 2042.38 1133.3 2054.36 1134.09 2067.21 1134.88 2064.43 1147.21 2058.86 1156.95 2049.75 1164.32 2027.91 1181.96 2002.71 1183.91 1976.67 1178 1949.85 1171.91 1933.63 1154.11 1927.16 1127.62 1921.73 1105.42 1922.92 1083.46 1933.64 1062.9 1949.08 1033.29 1984.57 1019.37 2018.44 1029.05 2048.55 1037.66 2065.39 1059.82 2067.79 1094.35 2068.22 1100.53 2067.85 1106.76 2067.85 1113.52 2034.05 1113.52 2000.38 1113.52 1966.83 1113.52 1963.91 1126.5 1972.47 1141.77 1985.21 1147.08 2000.84 1153.59 2018.78 1148.73 2027.11 1135.35ZM2018.34 1087.88C2021.69 1087.88 2025.04 1087.88 2028.39 1087.88 2028.17 1069.56 2015.93 1057.73 1997.55 1057.4 1980.62 1057.1 1966.79 1070.25 1966.12 1087.88 1983.14 1087.88 2000.14 1087.88 2018.34 1087.88Z" fill="#0077B6" fill-rule="evenodd"/><path d="M864.198 1177C859.848 1177 856.086 1177 851.769 1177 851.769 1174.14 851.769 1172 851.769 1169.85 851.769 1145.11 851.772 1120.37 851.767 1095.63 851.767 1093.44 851.774 1091.24 851.696 1089.05 850.891 1066.27 831.97 1054.78 811.224 1064.58 803.341 1068.3 799.479 1075.28 797.605 1083.3 796.708 1087.14 796.614 1091.22 796.602 1095.19 796.517 1120.13 796.559 1145.07 796.559 1170.01 796.559 1172.16 796.559 1174.3 796.559 1176.61 782.411 1176.61 768.842 1176.61 755 1176.61 755 1127.41 755 1078.59 755 1029.32 767.961 1029.32 780.739 1029.32 794.547 1029.32 794.547 1037.45 794.547 1045.8 794.547 1054.15 795.047 1054.25 795.547 1054.34 796.047 1054.44 796.639 1053.55 797.293 1052.69 797.815 1051.76 808.229 1033.24 826.624 1024.68 849.884 1027.54 869.949 1030 885.922 1043.42 890.986 1062.91 892.773 1069.79 893.745 1077.05 893.819 1084.15 894.126 1113.87 893.952 1143.61 893.943 1173.33 893.94 1174.31 893.801 1175.29 893.668 1177 883.981 1177 874.385 1177 864.198 1177Z" fill="#0077B6" fill-rule="evenodd"/><path d="M996.752 1178.82C984.785 1180.77 973.468 1180.48 962.405 1176.6 946.249 1170.93 936.723 1158.41 936.481 1141.24 936.129 1116.49 936.312 1091.74 936.266 1066.99 936.263 1064.83 936.266 1062.66 936.266 1059.7 929.166 1059.7 922.665 1059.7 916 1059.7 916 1048.92 916 1038.94 916 1028.42 922.649 1028.42 929.01 1028.42 936.154 1028.42 936.154 1016.38 936.154 1004.84 936.154 993 950.299 993 963.661 993 978.003 993 978.003 1002.17 978.001 1011.34 978.006 1020.52 978.01 1028.34 978.015 1028.34 985.847 1028.34 992.432 1028.35 999.017 1028.34 1005.9 1028.34 1005.9 1038.92 1005.9 1048.92 1005.9 1059.65 998.395 1059.65 991.011 1059.9 983.653 1059.55 979.074 1059.34 977.87 1060.98 977.914 1065.42 978.12 1085.94 977.987 1106.47 978.01 1126.99 978.028 1144.16 982.586 1148.11 999.516 1145.71 1000.28 1145.6 1001.04 1145.49 1002.45 1145.29 1004.62 1155.4 1006.74 1165.33 1009 1175.87 1004.91 1176.87 1001.09 1177.81 996.752 1178.82Z" fill="#0077B6" fill-rule="evenodd"/><path d="M1439.32 1042.95C1449.24 1028.84 1462.92 1025.32 1478.7 1027.67 1480.28 1027.91 1482.74 1030.09 1482.78 1031.42 1483.11 1042.18 1482.97 1052.95 1482.97 1064.24 1476.42 1063.72 1470.48 1062.66 1464.59 1062.89 1445.12 1063.66 1433.44 1075.97 1433.3 1095.79 1433.13 1120.59 1433.26 1145.39 1433.26 1170.19 1433.26 1172.35 1433.26 1174.51 1433.26 1177 1419.25 1177 1405.73 1177 1392 1177 1392 1127.76 1392 1078.8 1392 1029.36 1405.21 1029.36 1418.28 1029.36 1431.92 1029.36 1431.92 1037.6 1431.92 1045.72 1431.92 1053.84 1432.34 1053.97 1432.76 1054.1 1433.18 1054.23 1435.14 1050.59 1437.11 1046.95 1439.32 1042.95Z" fill="#0077B6" fill-rule="evenodd"/><path d="M1505 1093.72C1505 1071.81 1505 1050.5 1505 1028.13 1510.84 1028.13 1516.33 1028.13 1521.82 1028.13 1528.21 1028.13 1534.61 1028.44 1540.97 1028.03 1545.78 1027.73 1547.03 1029.42 1547 1034.15 1546.8 1063.92 1546.9 1093.7 1546.9 1123.48 1546.9 1141.16 1546.9 1158.84 1546.9 1177 1532.92 1177 1519.3 1177 1505 1177 1505 1149.31 1505 1121.82 1505 1093.72Z" fill="#0077B6" fill-rule="evenodd"/><path d="M1515.14 1006.58C1504.95 999.914 1501.1 991.707 1503.87 983.237 1507.01 973.653 1516.25 967.531 1526.82 968.028 1536.89 968.499 1545.46 975.303 1547.55 984.481 1550.84 998.892 1535.45 1012.23 1520.05 1008.3 1518.51 1007.91 1517.04 1007.29 1515.14 1006.58Z" fill="#0077B6" fill-rule="evenodd"/></g></svg>